<?xml version="1.0" encoding="UTF-8" standalone="no"?> <svg width="64" height="64" viewBox="0 0 64 64" fill="none" xmlns="http://www.w3.org/2000/svg">
<path d="M57 3H53V55H57V3Z" fill="#E9F1F2"/>
<path d="M55 3H53V55H55V3Z" fill="#D0D8DA"/>
<path d="M13 3H53V55H23C20.3478 55 17.8043 53.9464 15.9289 52.0711C14.0536 50.1957 13 47.6522 13 45V3Z" fill="#84D2F4"/>
<path d="M53 40V55H23C20.3478 55 17.8043 53.9464 15.9289 52.0711C14.0536 50.1957 13 47.6522 13 45V3H17V15C17.0034 21.6294 19.6385 27.9862 24.3261 32.6739C29.0138 37.3615 35.3706 39.9966 42 40H53Z" fill="#57B7EB"/>
<path d="M13 3H23V55C20.3478 55 17.8043 53.9464 15.9289 52.0711C14.0536 50.1957 13 47.6522 13 45V3Z" fill="#F8664F"/>
<path d="M23 31.24V55C20.3478 55 17.8043 53.9464 15.9289 52.0711C14.0536 50.1957 13 47.6522 13 45V3H17V15C16.9903 20.9572 19.1194 26.72 23 31.24V31.24Z" fill="#CC5144"/>
<path d="M27.021 49.707C26.0833 50.6447 24.8116 51.1715 23.4855 51.1715C22.1595 51.1715 20.8877 50.6447 19.95 49.707L14.293 44.05C13.3554 43.1123 12.8286 41.8406 12.8286 40.5145C12.8286 39.1885 13.3554 37.9167 14.293 36.979C14.8554 36.4164 15.1714 35.6535 15.1714 34.858C15.1714 34.0625 14.8554 33.2996 14.293 32.737L11.464 29.908C10.9014 29.3456 10.1385 29.0297 9.34303 29.0297C8.54754 29.0297 7.78461 29.3456 7.22203 29.908L6.51503 30.615C5.40066 31.7293 4.51669 33.0522 3.9136 34.5082C3.3105 35.9641 3.00009 37.5246 3.00009 39.1005C3.00009 40.6764 3.3105 42.2369 3.9136 43.6929C4.51669 45.1488 5.40066 46.4717 6.51503 47.586L16.415 57.486C17.5293 58.6004 18.8522 59.4844 20.3082 60.0875C21.7641 60.6906 23.3246 61.001 24.9005 61.001C26.4764 61.001 28.0369 60.6906 29.4929 60.0875C30.9488 59.4844 32.2717 58.6004 33.386 57.486L34.093 56.779C34.6554 56.2164 34.9714 55.4535 34.9714 54.658C34.9714 53.8625 34.6554 53.0996 34.093 52.537L31.264 49.708C30.9855 49.4293 30.6548 49.2082 30.2908 49.0573C29.9269 48.9065 29.5367 48.8288 29.1427 48.8287C28.7487 48.8286 28.3586 48.9061 27.9945 49.0568C27.6305 49.2075 27.2997 49.4285 27.021 49.707V49.707Z" fill="#F9E109"/>
<path d="M34.09 56.78L33.38 57.49C31.1282 59.7376 28.0766 60.9999 24.895 60.9999C21.7134 60.9999 18.6619 59.7376 16.41 57.49L6.51001 47.59C4.80481 45.8834 3.6533 43.7027 3.20558 41.3321C2.75786 38.9615 3.0347 36.511 4.00001 34.3C4.04987 37.4141 5.30854 40.3869 7.51001 42.59L17.41 52.49C19.631 54.7074 22.6321 55.9669 25.7704 55.9986C28.9086 56.0304 31.9346 54.832 34.2 52.66C34.7114 53.2308 34.985 53.9757 34.9645 54.7419C34.944 55.508 34.6311 56.2373 34.09 56.78V56.78Z" fill="#FCBC04"/>
<path d="M38 33C43.5228 33 48 28.5228 48 23C48 17.4772 43.5228 13 38 13C32.4772 13 28 17.4772 28 23C28 28.5228 32.4772 33 38 33Z" fill="#E9F1F2"/>
<path d="M47.4 26.41C46.8596 27.9041 45.971 29.2481 44.8078 30.3304C43.6445 31.4127 42.2401 32.2022 40.7109 32.6336C39.1817 33.0649 37.5717 33.1257 36.0143 32.8108C34.457 32.496 32.9971 31.8145 31.7555 30.823C30.514 29.8314 29.5266 28.5583 28.8752 27.1091C28.2237 25.6599 27.927 24.0764 28.0095 22.4896C28.0921 20.9029 28.5515 19.3587 29.3498 17.9849C30.1481 16.6111 31.2623 15.4473 32.6 14.59C32.2012 15.6826 31.9981 16.8369 32 18C32 20.6521 33.0536 23.1957 34.9289 25.071C36.8043 26.9464 39.3478 28 42 28C43.916 28.0043 45.792 27.4519 47.4 26.41V26.41Z" fill="#D0D8DA"/>
<path d="M38 25C40.2091 25 42 23.2091 42 21C42 18.7909 40.2091 17 38 17C35.7909 17 34 18.7909 34 21C34 23.2091 35.7909 25 38 25Z" fill="#F9E109"/>
<path d="M45 29V30.14C43.1307 31.9723 40.6175 32.9986 38 32.9986C35.3825 32.9986 32.8693 31.9723 31 30.14V29C31 27.9391 31.4214 26.9217 32.1716 26.1716C32.9217 25.4214 33.9391 25 35 25H41C42.0609 25 43.0783 25.4214 43.8284 26.1716C44.5786 26.9217 45 27.9391 45 29Z" fill="#F9E109"/>
<path d="M45 29V30.14C43.1307 31.9723 40.6175 32.9986 38 32.9986C35.3825 32.9986 32.8693 31.9723 31 30.14V29C30.998 27.9618 31.4014 26.9638 32.1242 26.2186C32.847 25.4734 33.8322 25.0397 34.87 25.01C35.7992 25.9584 36.9087 26.7114 38.1331 27.2249C39.3575 27.7384 40.6723 28.0019 42 28C42.9274 28.0037 43.8505 27.8723 44.74 27.61C44.9135 28.0528 45.0017 28.5244 45 29V29Z" fill="#FCBC04"/>
<path d="M34 38H30V42H34V38Z" fill="#F9E109"/>
<path d="M38 38H34V42H38V38Z" fill="#F9E109"/>
<path d="M42 38H38V42H42V38Z" fill="#F9E109"/>
<path d="M46 38H42V42H46V38Z" fill="#F9E109"/>
<path d="M61 7H53V13H61V7Z" fill="#F8664F"/>
<path d="M60 17H53V23H60V17Z" fill="#F9E109"/>
<path d="M59 27H53V33H59V27Z" fill="#F8664F"/>
<path d="M58 37H53V43H58V37Z" fill="#F9E109"/>
<path d="M34 38.69V42H30V38H32.2C32.79 38.26 33.39 38.49 34 38.69Z" fill="#FCBC04"/>
<path d="M38 39.67V42H34V38.69C35.3019 39.1338 36.6404 39.4617 38 39.67V39.67Z" fill="#FCBC04"/>
<path d="M42 40V42H38V39.67C39.3218 39.8915 40.6598 40.0019 42 40Z" fill="#FCBC04"/>
<path d="M46 40H42V42H46V40Z" fill="#FCBC04"/>
<path d="M41.78 22.28C41.563 22.9241 41.1852 23.5023 40.6824 23.9596C40.1795 24.417 39.5683 24.7385 38.9065 24.8936C38.2447 25.0487 37.5542 25.0324 36.9005 24.8461C36.2468 24.6599 35.6514 24.3098 35.1708 23.8292C34.6901 23.3485 34.3401 22.7532 34.1539 22.0995C33.9676 21.4457 33.9513 20.7553 34.1064 20.0935C34.2615 19.4317 34.583 18.8205 35.0403 18.3176C35.4977 17.8148 36.0758 17.437 36.72 17.22C36.5702 17.6299 36.4957 18.0635 36.5 18.5C36.5 19.5608 36.9214 20.5783 37.6716 21.3284C38.4217 22.0785 39.4391 22.5 40.5 22.5C40.9364 22.5043 41.3701 22.4297 41.78 22.28V22.28Z" fill="#FCBC04"/>
<path d="M45 29V30.14C43.1307 31.9723 40.6175 32.9986 38 32.9986C35.3825 32.9986 32.8693 31.9723 31 30.14V29C30.9999 28.1121 31.2958 27.2494 31.8409 26.5485C32.3861 25.8476 33.1493 25.3484 34.01 25.13C34.0397 26.1678 34.4733 27.153 35.2186 27.8758C35.9638 28.5986 36.9618 29.002 38 29H45Z" fill="#E59730"/>
<path d="M57 43H53V45H57V43Z" fill="#D0D8DA"/>
<path d="M57 33H53V35H57V33Z" fill="#D0D8DA"/>
<path d="M57 23H53V25H57V23Z" fill="#D0D8DA"/>
<path d="M57 13H53V15H57V13Z" fill="#D0D8DA"/>
<path d="M61 11V13H53V7H55C55 8.06087 55.4214 9.07828 56.1716 9.82843C56.9217 10.5786 57.9391 11 59 11H61Z" fill="#CC5144"/>
<path d="M60 21V23H53V17H55C55 18.0609 55.4214 19.0783 56.1716 19.8284C56.9217 20.5786 57.9391 21 59 21H60Z" fill="#FCBC04"/>
<path d="M59 31V33H53V27H55C55 28.0609 55.4214 29.0783 56.1716 29.8284C56.9217 30.5786 57.9391 31 59 31Z" fill="#CC5144"/>
<path d="M58 40.87V43H53V37H55C54.9993 37.8866 55.2938 38.7483 55.837 39.449C56.3802 40.1497 57.1412 40.6497 58 40.87V40.87Z" fill="#FCBC04"/>
<path d="M23 14C22.7348 14 22.4804 14.1054 22.2929 14.2929C22.1054 14.4804 22 14.7348 22 15V47.125C22 47.3902 22.1054 47.6446 22.2929 47.8321C22.4804 48.0196 22.7348 48.125 23 48.125C23.2652 48.125 23.5196 48.0196 23.7071 47.8321C23.8946 47.6446 24 47.3902 24 47.125V15C24 14.7348 23.8946 14.4804 23.7071 14.2929C23.5196 14.1054 23.2652 14 23 14Z" fill="#464A51"/>
<path d="M27 23C26.9992 24.7157 27.3997 26.4079 28.1696 27.9413C28.9395 29.4746 30.0574 30.8066 31.434 31.8307C32.8105 32.8549 34.4076 33.5429 36.0975 33.8396C37.7874 34.1363 39.5233 34.0337 41.1665 33.5398C42.8096 33.0459 44.3145 32.1744 45.5607 30.9951C46.8069 29.8158 47.76 28.3613 48.3438 26.7479C48.9275 25.1345 49.1258 23.4069 48.9227 21.7032C48.7195 19.9995 48.1207 18.3669 47.174 16.936C47.1017 16.8258 47.0084 16.7311 46.8994 16.6571C46.7905 16.5832 46.6679 16.5315 46.5389 16.505C46.4099 16.4785 46.2769 16.4778 46.1476 16.5029C46.0183 16.5279 45.8952 16.5783 45.7854 16.6511C45.6756 16.7239 45.5813 16.8176 45.5079 16.9269C45.4344 17.0363 45.3833 17.159 45.3574 17.2882C45.3315 17.4173 45.3314 17.5503 45.3571 17.6795C45.3828 17.8087 45.4337 17.9315 45.507 18.041C46.4363 19.4413 46.9527 21.075 46.9969 22.755C47.0411 24.4351 46.6114 26.0937 45.757 27.541C45.491 26.6681 44.9906 25.8849 44.3104 25.2766C43.6301 24.6683 42.7961 24.2582 41.899 24.091C42.607 23.2159 42.9953 22.1255 43 21C43 19.6739 42.4732 18.4021 41.5355 17.4644C40.5979 16.5267 39.3261 16 38 16C36.6739 16 35.4021 16.5267 34.4645 17.4644C33.5268 18.4021 33 19.6739 33 21C33.0044 22.1254 33.3924 23.2158 34.1 24.091C33.2029 24.2582 32.3689 24.6683 31.6886 25.2766C31.0084 25.8849 30.508 26.6681 30.242 27.541C29.213 25.7887 28.8081 23.7396 29.0931 21.7276C29.3782 19.7157 30.3364 17.8597 31.8116 16.4622C33.2868 15.0647 35.1919 14.2083 37.2163 14.0324C39.2407 13.8566 41.265 14.3718 42.959 15.494C43.1801 15.6262 43.4436 15.6679 43.6948 15.6106C43.9459 15.5533 44.1652 15.4013 44.307 15.1862C44.4488 14.9712 44.5022 14.7097 44.456 14.4563C44.4098 14.2029 44.2676 13.9771 44.059 13.826C42.4014 12.732 40.4785 12.1072 38.4945 12.018C36.5104 11.9287 34.5392 12.3782 32.79 13.3189C31.0408 14.2596 29.579 15.6563 28.5596 17.3607C27.5402 19.0652 27.0012 21.0139 27 23V23ZM38 18C38.5933 18 39.1734 18.1759 39.6667 18.5056C40.1601 18.8352 40.5446 19.3037 40.7716 19.8519C40.9987 20.4001 41.0581 21.0033 40.9424 21.5852C40.8266 22.1672 40.5409 22.7017 40.1213 23.1213C39.7018 23.5408 39.1672 23.8266 38.5853 23.9423C38.0033 24.0581 37.4001 23.9987 36.852 23.7716C36.3038 23.5445 35.8352 23.16 35.5056 22.6667C35.1759 22.1733 35 21.5933 35 21C35 20.2043 35.3161 19.4413 35.8787 18.8786C36.4413 18.316 37.2044 18 38 18ZM35 26H41C41.7957 26 42.5587 26.316 43.1213 26.8786C43.6839 27.4413 44 28.2043 44 29V29.689C42.3556 31.1764 40.2173 32.0001 38 32.0001C35.7827 32.0001 33.6444 31.1764 32 29.689V29C32 28.2043 32.3161 27.4413 32.8787 26.8786C33.4413 26.316 34.2044 26 35 26Z" fill="#464A51"/>
<path d="M47 38C47 37.7348 46.8946 37.4804 46.7071 37.2929C46.5196 37.1054 46.2652 37 46 37H30C29.7348 37 29.4804 37.1054 29.2929 37.2929C29.1054 37.4804 29 37.7348 29 38V42C29 42.2652 29.1054 42.5196 29.2929 42.7071C29.4804 42.8946 29.7348 43 30 43H46C46.2652 43 46.5196 42.8946 46.7071 42.7071C46.8946 42.5196 47 42.2652 47 42V38ZM31 39H33V41H31V39ZM35 39H37V41H35V39ZM39 39H41V41H39V39ZM45 41H43V39H45V41Z" fill="#464A51"/>
<path d="M46 45H38C37.7348 45 37.4804 45.1054 37.2929 45.2929C37.1054 45.4804 37 45.7348 37 46C37 46.2652 37.1054 46.5196 37.2929 46.7071C37.4804 46.8946 37.7348 47 38 47H46C46.2652 47 46.5196 46.8946 46.7071 46.7071C46.8946 46.5196 47 46.2652 47 46C47 45.7348 46.8946 45.4804 46.7071 45.2929C46.5196 45.1054 46.2652 45 46 45Z" fill="#464A51"/>
<path d="M61 6H58V3C58 2.73478 57.8947 2.48043 57.7071 2.29289C57.5196 2.10536 57.2652 2 57 2H46C45.7348 2 45.4804 2.10536 45.2929 2.29289C45.1054 2.48043 45 2.73478 45 3C45 3.26522 45.1054 3.51957 45.2929 3.70711C45.4804 3.89464 45.7348 4 46 4H52V54H35.907C35.7753 53.1777 35.388 52.4177 34.8 51.828L31.971 49C31.2086 48.2734 30.1957 47.8681 29.1425 47.8681C28.0893 47.8681 27.0765 48.2734 26.314 49C25.5516 49.7266 24.5387 50.1319 23.4855 50.1319C22.4323 50.1319 21.4195 49.7266 20.657 49L15 43.343C14.2501 42.5929 13.8289 41.5757 13.8289 40.515C13.8289 39.4543 14.2501 38.4371 15 37.687C15.7488 36.9359 16.1693 35.9186 16.1693 34.858C16.1693 33.7974 15.7488 32.7801 15 32.029L14 31.029V27H15C15.2652 27 15.5196 26.8946 15.7071 26.7071C15.8947 26.5196 16 26.2652 16 26C16 25.7348 15.8947 25.4804 15.7071 25.2929C15.5196 25.1054 15.2652 25 15 25H14V23H15C15.2652 23 15.5196 22.8946 15.7071 22.7071C15.8947 22.5196 16 22.2652 16 22C16 21.7348 15.8947 21.4804 15.7071 21.2929C15.5196 21.1054 15.2652 21 15 21H14V19H15C15.2652 19 15.5196 18.8946 15.7071 18.7071C15.8947 18.5196 16 18.2652 16 18C16 17.7348 15.8947 17.4804 15.7071 17.2929C15.5196 17.1054 15.2652 17 15 17H14V15H15C15.2652 15 15.5196 14.8946 15.7071 14.7071C15.8947 14.5196 16 14.2652 16 14C16 13.7348 15.8947 13.4804 15.7071 13.2929C15.5196 13.1054 15.2652 13 15 13H14V11H15C15.2652 11 15.5196 10.8946 15.7071 10.7071C15.8947 10.5196 16 10.2652 16 10C16 9.73478 15.8947 9.48043 15.7071 9.29289C15.5196 9.10536 15.2652 9 15 9H14V4H22V11C22 11.2652 22.1054 11.5196 22.2929 11.7071C22.4804 11.8946 22.7348 12 23 12C23.2652 12 23.5196 11.8946 23.7071 11.7071C23.8947 11.5196 24 11.2652 24 11V4H42C42.2652 4 42.5196 3.89464 42.7071 3.70711C42.8947 3.51957 43 3.26522 43 3C43 2.73478 42.8947 2.48043 42.7071 2.29289C42.5196 2.10536 42.2652 2 42 2H13C12.7348 2 12.4804 2.10536 12.2929 2.29289C12.1054 2.48043 12 2.73478 12 3V9H11C10.7348 9 10.4804 9.10536 10.2929 9.29289C10.1054 9.48043 10 9.73478 10 10C10 10.2652 10.1054 10.5196 10.2929 10.7071C10.4804 10.8946 10.7348 11 11 11H12V13H11C10.7348 13 10.4804 13.1054 10.2929 13.2929C10.1054 13.4804 10 13.7348 10 14C10 14.2652 10.1054 14.5196 10.2929 14.7071C10.4804 14.8946 10.7348 15 11 15H12V17H11C10.7348 17 10.4804 17.1054 10.2929 17.2929C10.1054 17.4804 10 17.7348 10 18C10 18.2652 10.1054 18.5196 10.2929 18.7071C10.4804 18.8946 10.7348 19 11 19H12V21H11C10.7348 21 10.4804 21.1054 10.2929 21.2929C10.1054 21.4804 10 21.7348 10 22C10 22.2652 10.1054 22.5196 10.2929 22.7071C10.4804 22.8946 10.7348 23 11 23H12V25H11C10.7348 25 10.4804 25.1054 10.2929 25.2929C10.1054 25.4804 10 25.7348 10 26C10 26.2652 10.1054 26.5196 10.2929 26.7071C10.4804 26.8946 10.7348 27 11 27H12V29.063C11.2312 28.4021 10.2444 28.0503 9.23094 28.0758C8.21746 28.1013 7.24958 28.5023 6.51501 29.201L5.80801 29.908C3.37339 32.3478 2.00607 35.6538 2.00607 39.1005C2.00607 42.5472 3.37339 45.8532 5.80801 48.293L9.84301 52.328C9.93526 52.4235 10.0456 52.4997 10.1676 52.5521C10.2896 52.6045 10.4208 52.6321 10.5536 52.6333C10.6864 52.6344 10.8181 52.6091 10.941 52.5588C11.0639 52.5085 11.1755 52.4343 11.2694 52.3404C11.3633 52.2465 11.4375 52.1349 11.4878 52.012C11.5381 51.8891 11.5634 51.7574 11.5623 51.6246C11.5611 51.4918 11.5335 51.3606 11.4811 51.2386C11.4287 51.1166 11.3525 51.0062 11.257 50.914L7.22201 46.879C5.16209 44.8144 4.00523 42.017 4.00523 39.1005C4.00523 36.184 5.16209 33.3866 7.22201 31.322L7.92901 30.615C8.30986 30.2512 8.8163 30.0481 9.34301 30.0481C9.86972 30.0481 10.3762 30.2512 10.757 30.615L12.293 32.15L13.586 33.442C13.7718 33.6277 13.9192 33.8482 14.0198 34.0909C14.1203 34.3337 14.1721 34.5938 14.1721 34.8565C14.1721 35.1192 14.1203 35.3794 14.0198 35.6221C13.9192 35.8648 13.7718 36.0853 13.586 36.271C12.4609 37.3962 11.8288 38.9223 11.8288 40.5135C11.8288 42.1047 12.4609 43.6308 13.586 44.756L19.243 50.413C20.3682 51.5381 21.8943 52.1702 23.4855 52.1702C25.0767 52.1702 26.6028 51.5381 27.728 50.413C28.109 50.0491 28.6156 49.846 29.1425 49.846C29.6694 49.846 30.176 50.0491 30.557 50.413L33.385 53.241C33.5708 53.4267 33.7182 53.6472 33.8188 53.8899C33.9193 54.1326 33.9711 54.3928 33.9711 54.6555C33.9711 54.9182 33.9193 55.1784 33.8188 55.4211C33.7182 55.6638 33.5708 55.8843 33.385 56.07L32.678 56.777C30.6134 58.8369 27.816 59.9938 24.8995 59.9938C21.983 59.9938 19.1856 58.8369 17.121 56.777L14.086 53.742C13.8974 53.5598 13.6448 53.459 13.3826 53.4613C13.1204 53.4636 12.8696 53.5688 12.6842 53.7542C12.4988 53.9396 12.3936 54.1904 12.3913 54.4526C12.3891 54.7148 12.4899 54.9674 12.672 55.156L15.707 58.191C18.1468 60.6256 21.4528 61.9929 24.8995 61.9929C28.3462 61.9929 31.6522 60.6256 34.092 58.191L34.799 57.484C35.2145 57.0646 35.5309 56.5576 35.725 56H57C57.2652 56 57.5196 55.8946 57.7071 55.7071C57.8947 55.5196 58 55.2652 58 55V47C58 46.7348 57.8947 46.4804 57.7071 46.2929C57.5196 46.1054 57.2652 46 57 46C56.7348 46 56.4804 46.1054 56.2929 46.2929C56.1054 46.4804 56 46.7348 56 47V54H54V44H58C58.2652 44 58.5196 43.8946 58.7071 43.7071C58.8947 43.5196 59 43.2652 59 43V37C59 36.7348 58.8947 36.4804 58.7071 36.2929C58.5196 36.1054 58.2652 36 58 36V34H59C59.2652 34 59.5196 33.8946 59.7071 33.7071C59.8947 33.5196 60 33.2652 60 33V27C60 26.7348 59.8947 26.4804 59.7071 26.2929C59.5196 26.1054 59.2652 26 59 26H58V24H60C60.2652 24 60.5196 23.8946 60.7071 23.7071C60.8947 23.5196 61 23.2652 61 23V17C61 16.7348 60.8947 16.4804 60.7071 16.2929C60.5196 16.1054 60.2652 16 60 16H58V14H61C61.2652 14 61.5196 13.8946 61.7071 13.7071C61.8947 13.5196 62 13.2652 62 13V7C62 6.73478 61.8947 6.48043 61.7071 6.29289C61.5196 6.10536 61.2652 6 61 6ZM56 6H54V4H56V6ZM57 42H54V38H57V42ZM56 36H54V34H56V36ZM58 32H54V28H58V32ZM56 26H54V24H56V26ZM59 22H54V18H59V22ZM56 16H54V14H56V16ZM60 12H54V8H60V12Z" fill="#464A51"/>
</svg>
